<?xml version="1.0" standalone="no"?>
<!DOCTYPE svg PUBLIC "-//W3C//DTD SVG 20010904//EN"
 "http://www.w3.org/TR/2001/REC-SVG-20010904/DTD/svg10.dtd">
<svg version="1.0" xmlns="http://www.w3.org/2000/svg"
 width="1080.000000pt" height="1080.000000pt" viewBox="0 0 1080.000000 1080.000000"
 preserveAspectRatio="xMidYMid meet">
<metadata>
Created by potrace 1.14, written by Peter Selinger 2001-2017
</metadata>
<g transform="translate(0.000000,1080.000000) scale(0.100000,-0.100000)"
fill="#000000" stroke="none">
<path d="M5610 8189 c-41 -5 -84 -11 -95 -13 -11 -3 -23 -5 -26 -5 -6 -1 -8
-58 -8 -216 0 -11 -3 -96 -7 -190 -10 -255 -8 -322 7 -347 4 -6 27 -13 51 -14
24 -1 56 -5 72 -9 19 -5 31 -4 36 5 4 7 38 15 76 18 92 7 109 25 82 86 l-13
27 -95 -6 c-89 -6 -96 -5 -108 15 -7 11 -10 25 -7 30 4 6 3 15 -1 21 -4 7 -7
43 -8 82 -1 65 1 71 29 93 16 12 40 26 54 29 78 20 64 92 -18 96 -23 2 -45 8
-49 13 -9 16 -10 149 -1 168 9 17 88 33 149 29 24 -1 41 4 52 16 57 66 -2 91
-172 72z"/>
<path d="M5325 8160 c-7 -12 -14 -80 -19 -192 -4 -79 -15 -96 -61 -96 -53 0
-68 31 -60 123 9 91 0 131 -31 152 -23 15 -26 15 -40 -3 -8 -10 -13 -31 -11
-46 2 -15 1 -25 -2 -23 -3 2 -5 -130 -4 -293 2 -164 3 -307 3 -320 0 -22 40
-72 57 -72 37 1 51 102 40 280 -1 19 4 48 11 63 11 23 18 28 45 25 18 -2 37
-9 42 -16 10 -12 11 -98 3 -247 -4 -63 10 -80 59 -72 19 4 38 9 41 12 10 10
11 124 2 130 -5 3 -5 18 0 33 4 16 6 57 5 93 -2 35 1 67 7 70 7 4 6 14 -1 28
-7 12 -9 26 -6 31 3 5 7 69 9 142 3 134 -5 178 -31 178 -8 0 -11 5 -8 10 3 6
2 10 -4 10 -5 0 -16 3 -24 6 -8 3 -18 0 -22 -6z"/>
<path d="M4639 8130 c-32 -8 -43 -46 -20 -69 18 -18 111 -38 128 -28 16 10 41
-19 51 -58 6 -22 11 -76 11 -120 1 -106 7 -181 15 -194 4 -6 2 -28 -4 -48 -8
-25 -8 -47 -2 -63 6 -16 6 -33 0 -46 -15 -33 10 -78 45 -82 43 -5 58 14 57 72
0 28 0 60 0 71 0 11 -2 58 -5 105 -10 156 -7 299 6 328 8 20 25 33 53 43 38
13 41 17 41 52 1 26 -4 37 -15 39 -40 4 -341 2 -361 -2z"/>
<path d="M10100 7398 c0 -5 -7 -16 -15 -24 -17 -17 -21 -49 -5 -39 6 4 10 -7
10 -27 0 -19 7 -44 16 -56 8 -12 12 -27 7 -35 -9 -14 -12 -28 -20 -86 -5 -39
-22 -69 -81 -146 -4 -5 -9 -26 -10 -45 -2 -19 -7 -39 -12 -44 -6 -6 -10 -18
-10 -27 0 -9 -7 -20 -16 -23 -9 -3 -14 -13 -10 -21 3 -8 1 -17 -3 -20 -5 -2
-12 -17 -16 -32 -3 -16 -14 -36 -22 -45 -9 -10 -13 -18 -10 -18 4 0 -2 -15
-12 -33 -10 -18 -22 -49 -26 -68 -4 -19 -11 -36 -14 -39 -15 -11 -41 -79 -35
-93 3 -8 1 -18 -5 -22 -6 -3 -11 -15 -11 -25 0 -10 -4 -20 -10 -22 -5 -1 -11
-12 -13 -23 -1 -11 -6 -26 -10 -32 -5 -7 -5 -17 -2 -23 3 -5 1 -10 -4 -10 -6
0 -11 -6 -11 -14 0 -7 -7 -19 -15 -26 -8 -7 -15 -20 -15 -30 0 -10 -11 -25
-25 -34 -23 -15 -25 -15 -37 7 -7 12 -12 27 -13 32 -2 26 -29 95 -37 95 -5 0
-8 6 -6 13 2 11 -30 86 -41 97 -6 5 -7 15 -14 75 -1 11 -8 26 -15 33 -7 8 -10
17 -7 22 3 4 -2 21 -10 36 -8 16 -15 36 -15 46 0 23 -42 131 -56 143 -10 10
-37 110 -37 140 0 8 -4 15 -8 15 -5 0 -4 11 1 24 6 18 5 26 -5 30 -7 2 -21 32
-31 66 -9 33 -21 63 -25 66 -15 9 -10 61 6 78 8 8 15 22 15 30 0 9 5 16 11 16
16 0 6 45 -11 46 -8 1 -17 2 -20 4 -3 1 -24 4 -48 4 -24 1 -47 8 -51 15 -5 8
-26 12 -58 10 -27 -1 -55 1 -62 5 -8 5 -16 4 -20 -3 -4 -6 -36 -16 -72 -23
-35 -6 -68 -17 -72 -24 -4 -8 -19 -14 -32 -14 -19 0 -25 -5 -25 -22 0 -17 -3
-19 -12 -10 -14 14 -48 16 -48 3 0 -7 -59 -41 -80 -46 -3 -1 -13 -5 -22 -9
-19 -9 -45 -14 -71 -15 -11 -1 -15 -5 -11 -13 5 -8 2 -9 -10 -5 -10 4 -24 7
-32 7 -11 0 -8 9 10 33 15 19 26 39 26 45 0 7 5 12 10 12 16 0 11 17 -13 46
-23 27 -27 28 -133 29 -60 1 -113 -1 -119 -4 -5 -3 -24 -4 -41 -2 -18 1 -38
-4 -47 -13 -9 -9 -20 -16 -26 -16 -6 0 -10 -10 -8 -22 2 -27 36 -70 49 -62 4
3 12 -6 17 -19 6 -14 16 -28 23 -31 8 -4 9 -8 2 -11 -10 -5 -8 -55 3 -85 4 -8
5 -19 3 -25 -6 -24 -6 -205 1 -216 4 -7 4 -22 -1 -33 -4 -12 -11 -66 -14 -121
-4 -54 -9 -101 -11 -104 -3 -2 0 -9 5 -16 6 -7 6 -23 1 -43 -5 -17 -7 -33 -5
-35 5 -5 6 -269 1 -302 -2 -11 -6 -26 -10 -32 -4 -6 -3 -13 3 -15 7 -2 7 -20
0 -57 -5 -29 -7 -58 -3 -65 10 -15 10 -300 0 -307 -4 -3 -4 -24 1 -47 8 -34 7
-44 -7 -56 -20 -18 -37 -9 -37 19 0 29 -14 65 -25 65 -5 0 -9 11 -9 24 0 13
-11 49 -25 80 -14 31 -25 62 -25 69 0 7 -6 19 -12 26 -7 6 -14 16 -14 22 -1 5
-2 10 -4 12 -1 1 -4 15 -6 32 -3 16 -8 32 -12 35 -4 3 -7 10 -7 15 -2 30 -55
186 -81 237 -8 14 -15 38 -16 52 -1 14 -5 26 -8 26 -7 0 -30 84 -30 110 0 12
-7 23 -15 26 -8 4 -15 14 -15 23 0 10 -8 35 -19 57 -10 21 -22 54 -26 73 -4
19 -14 50 -23 70 -9 20 -17 47 -19 61 -4 31 -25 103 -33 110 -9 9 -49 133 -55
175 -10 61 -11 68 -24 98 -6 16 -11 34 -11 42 0 7 -6 16 -12 18 -10 4 -10 6 0
6 7 1 10 5 7 11 -3 5 1 20 10 34 16 24 16 25 -24 48 -23 13 -41 28 -41 34 0
12 -87 25 -105 15 -5 -3 -55 -5 -110 -6 l-100 0 2 -30 c1 -16 7 -31 13 -33 5
-2 10 -10 10 -18 0 -8 4 -14 9 -14 16 0 33 -70 27 -106 -6 -31 -5 -34 18 -34
14 0 28 5 31 10 3 6 15 10 26 10 10 0 19 5 19 10 0 6 7 10 15 10 19 0 19 -17
1 -27 -8 -4 -16 -12 -18 -18 -2 -5 -9 -9 -16 -9 -7 1 -11 0 -8 -3 6 -7 -12
-25 -39 -40 -16 -9 -20 -23 -22 -70 0 -32 -4 -78 -8 -103 -12 -85 -13 -165 -2
-172 8 -5 5 -19 -10 -47 -15 -28 -18 -42 -10 -45 9 -5 9 -8 -1 -12 -6 -3 -9
-11 -5 -17 8 -13 13 -99 15 -289 1 -65 6 -118 11 -118 4 0 5 -5 1 -11 -5 -9
-10 -69 -15 -204 -1 -32 0 -147 1 -185 1 -19 3 -87 5 -150 2 -63 4 -117 6
-120 7 -16 11 -389 5 -503 -1 -21 1 -40 5 -43 10 -6 -1 -68 -13 -75 -6 -4 -9
-13 -6 -20 3 -8 -8 -25 -25 -39 -54 -44 -77 -73 -73 -89 2 -9 7 -33 11 -53 3
-21 11 -43 18 -51 7 -7 17 -22 23 -32 6 -11 15 -20 20 -20 5 -1 19 -6 30 -13
12 -6 24 -8 28 -5 3 3 6 0 6 -9 0 -8 19 -23 43 -33 23 -11 55 -28 71 -39 16
-11 46 -21 67 -23 31 -3 39 0 44 18 4 13 2 24 -4 29 -7 4 -11 11 -10 16 7 23
-14 84 -36 106 -17 17 -21 28 -14 38 10 18 12 74 2 84 -12 11 -18 289 -8 307
3 4 1 10 -4 14 -6 3 -8 12 -5 19 3 8 1 16 -4 20 -5 3 -6 27 -3 53 5 37 4 240
-1 308 0 6 2 29 5 52 3 24 2 45 -3 48 -4 3 -4 24 1 47 6 23 7 54 4 69 -6 26 4
41 31 45 14 2 68 -101 60 -115 -4 -6 2 -16 13 -22 10 -7 17 -18 14 -25 -3 -7
7 -26 21 -41 18 -20 26 -39 26 -65 0 -21 5 -38 10 -38 6 0 10 -9 10 -20 0 -11
4 -20 8 -20 5 0 9 -13 9 -30 0 -16 7 -46 15 -67 25 -59 31 -77 30 -85 -1 -5 2
-8 7 -8 9 0 26 -48 23 -62 -1 -5 3 -8 9 -8 6 0 9 -7 5 -15 -3 -8 0 -15 5 -15
7 0 9 -11 7 -25 -3 -14 -2 -25 1 -25 3 0 7 -15 8 -34 2 -19 12 -50 22 -68 11
-18 23 -49 26 -68 3 -19 11 -40 17 -47 6 -7 8 -24 6 -37 -3 -15 -1 -24 6 -23
5 1 10 -15 11 -38 0 -22 4 -47 10 -55 5 -8 11 -19 12 -25 9 -37 37 -105 43
-105 4 0 7 -16 5 -35 -2 -19 1 -38 6 -41 6 -3 9 -23 8 -45 -2 -21 0 -41 4 -45
4 -4 7 -20 7 -35 0 -15 5 -29 11 -31 6 -2 13 -22 16 -43 2 -22 8 -44 14 -49
13 -14 11 -29 -2 -20 -7 4 -9 0 -5 -13 3 -11 8 -45 11 -77 2 -32 9 -63 14 -70
6 -7 8 -16 4 -19 -3 -4 -1 -12 5 -19 5 -7 13 -34 17 -59 6 -37 13 -49 38 -65
18 -10 40 -17 49 -16 13 2 16 -1 12 -12 -5 -12 0 -16 20 -16 14 0 26 -4 26 -9
0 -14 70 -24 84 -12 7 6 16 8 19 4 4 -3 7 5 7 19 0 15 -4 28 -10 30 -10 3 -24
94 -21 133 1 11 2 38 2 60 0 22 4 44 8 50 11 14 1 85 -11 85 -7 0 -7 4 0 13
16 19 25 94 13 102 -6 3 -9 11 -6 16 9 13 15 47 20 109 2 30 8 71 13 90 5 20
6 44 2 55 -4 11 -5 24 -2 30 4 5 7 91 9 190 1 99 5 230 9 290 3 61 5 128 5
150 -2 50 -2 46 4 135 8 124 13 210 19 308 3 51 8 97 11 102 3 6 0 10 -7 10
-10 0 -10 2 0 8 11 8 15 56 27 357 4 92 4 194 3 385 -1 138 8 345 16 358 2 4
3 27 2 52 -3 52 13 149 26 167 10 13 68 7 78 -8 3 -4 23 -9 45 -12 35 -3 95
-26 71 -27 -5 0 -3 -7 4 -15 8 -10 10 -29 6 -55 -4 -25 -2 -40 4 -40 5 0 10
-10 10 -22 0 -25 16 -77 42 -134 10 -22 18 -48 18 -57 0 -9 4 -17 9 -17 9 0
24 -38 22 -54 -1 -4 7 -16 19 -26 11 -9 20 -22 20 -28 0 -5 6 -22 14 -37 10
-18 11 -36 6 -56 -5 -18 -5 -27 1 -24 8 6 13 -29 10 -68 -1 -9 5 -20 13 -23 9
-3 13 -11 10 -16 -4 -6 0 -14 7 -19 12 -7 12 -10 1 -18 -11 -6 -10 -10 3 -15
10 -3 15 -12 11 -21 -3 -8 1 -21 9 -29 8 -8 15 -33 15 -55 0 -22 5 -43 10 -46
6 -3 10 -15 10 -26 0 -10 5 -19 10 -19 6 0 10 -8 10 -18 0 -23 22 -72 33 -72
5 0 5 -9 2 -20 -4 -11 -2 -20 4 -20 6 0 11 -8 11 -19 0 -10 7 -25 16 -32 13
-10 15 -24 11 -61 -4 -31 -2 -48 5 -48 6 0 8 -9 5 -20 -3 -14 1 -25 12 -32 11
-7 16 -19 13 -30 -3 -12 0 -18 9 -16 7 2 13 -1 14 -7 0 -5 3 -15 7 -21 4 -6
10 -31 14 -55 4 -24 12 -48 19 -54 19 -17 35 -64 25 -70 -6 -4 -4 -12 5 -21
11 -12 12 -20 5 -35 -6 -11 -8 -25 -4 -31 8 -12 8 -30 1 -203 -2 -60 -8 -119
-12 -129 -6 -14 -5 -17 4 -11 11 6 12 -10 6 -81 -4 -49 -9 -125 -11 -169 -2
-44 -5 -87 -6 -95 -4 -37 3 -101 10 -96 10 6 8 -131 -3 -193 -4 -24 -3 -41 1
-38 10 6 11 -44 2 -59 -3 -5 -5 -31 -3 -57 2 -27 -2 -68 -9 -91 -8 -26 -10
-51 -4 -65 4 -13 4 -30 -1 -39 -5 -10 -7 -40 -4 -69 2 -28 0 -60 -6 -71 -7
-13 -8 -29 -2 -44 4 -13 4 -36 0 -53 -5 -16 -11 -75 -14 -130 -2 -55 -9 -124
-16 -154 -9 -44 -9 -55 2 -62 10 -6 11 -11 3 -16 -6 -5 -10 -47 -9 -106 0 -54
-3 -103 -7 -110 -4 -6 -22 -12 -40 -13 -47 -4 -102 -15 -108 -22 -5 -7 -9 -8
-56 -10 -14 -1 -22 -6 -19 -12 3 -5 1 -10 -4 -10 -6 0 -11 -9 -11 -20 0 -11 4
-20 10 -20 5 0 6 -7 3 -17 -4 -10 -2 -14 5 -9 6 3 13 -3 17 -16 8 -27 62 -78
81 -78 8 0 14 -4 14 -10 0 -5 20 -10 44 -10 25 0 48 -4 51 -10 3 -5 12 -10 20
-10 8 0 29 -14 47 -30 18 -17 38 -30 46 -30 7 0 15 -7 18 -15 4 -8 10 -13 14
-10 4 3 13 -2 20 -10 7 -8 16 -15 20 -15 5 0 25 -16 44 -35 20 -19 43 -35 51
-35 8 0 15 -4 15 -10 0 -5 3 -9 8 -9 22 4 34 -3 29 -15 -4 -10 -1 -13 9 -9 7
3 14 0 14 -6 0 -6 11 -16 25 -21 14 -5 25 -14 25 -20 0 -5 9 -10 20 -10 11 0
20 -4 20 -9 0 -5 18 -11 41 -15 35 -6 45 -3 78 24 33 25 39 37 45 81 6 42 4
55 -11 69 -10 10 -29 32 -42 49 -13 17 -29 31 -37 31 -16 0 -19 16 -5 24 5 3
6 21 2 38 -8 35 -6 133 4 186 3 18 2 32 -4 32 -5 0 -8 20 -6 45 1 25 -1 48 -6
51 -5 3 -7 21 -3 40 4 23 2 34 -6 34 -7 0 -9 8 -5 20 3 11 8 32 11 47 3 15 7
30 10 34 2 4 0 19 -6 33 -6 17 -6 27 1 31 5 4 9 23 9 43 -1 60 9 234 15 253 3
10 1 20 -5 24 -6 3 -8 10 -6 14 3 4 7 19 10 34 3 15 8 36 11 47 4 11 2 20 -3
20 -5 0 -6 20 -1 48 4 26 3 52 -1 57 -5 6 -8 21 -9 35 -2 197 -1 271 4 280 3
5 3 10 -2 10 -4 0 -7 20 -5 45 2 25 7 45 11 45 3 0 6 32 6 70 0 39 -2 70 -5
70 -7 0 -3 187 4 199 4 5 2 12 -2 15 -5 3 -5 29 -1 58 5 29 7 60 4 68 -3 9 0
31 6 50 6 19 12 86 15 148 2 62 6 117 9 122 3 5 2 11 -3 14 -5 3 -6 28 -2 56
4 28 3 53 0 55 -4 3 -6 24 -4 47 2 24 6 77 9 118 2 41 9 99 15 129 5 29 10 71
10 92 0 22 4 39 8 39 5 0 15 18 22 40 7 22 16 40 20 40 6 0 13 29 23 100 1 8
10 26 19 40 9 14 19 36 23 50 4 14 15 44 26 67 10 24 19 47 19 53 0 5 5 10 10
10 6 0 10 10 10 22 0 35 32 141 48 160 7 9 11 22 7 27 -3 6 -2 11 3 11 5 0 15
20 21 45 6 25 15 45 20 45 5 0 12 18 16 40 4 22 11 40 16 40 5 0 9 9 9 20 0
11 3 20 8 20 8 0 32 48 32 66 0 17 33 74 43 74 4 0 7 11 7 24 0 35 14 67 44
99 14 15 26 32 26 36 0 13 26 32 33 24 4 -3 25 -6 48 -7 35 -1 46 4 62 26 17
23 19 31 9 53 -7 15 -9 37 -6 51 8 31 -13 74 -32 67 -8 -3 -17 2 -20 11 -3 9
-11 13 -16 10 -6 -4 -14 -1 -18 7 -5 7 -17 14 -27 15 -9 2 -19 8 -21 13 -2 6
-12 11 -22 11 -10 0 -20 6 -23 14 -3 8 -20 17 -37 21 -17 4 -34 13 -37 21 -5
15 -73 17 -73 2z m-825 -387 c-3 -6 -11 -11 -17 -11 -6 0 -6 6 2 15 14 17 26
13 15 -4z"/>
<path d="M4650 7328 c0 -4 -17 -8 -39 -8 -22 0 -58 -11 -86 -25 -26 -14 -50
-23 -53 -21 -2 3 -19 -5 -36 -17 -17 -12 -36 -22 -42 -22 -7 0 -48 -34 -92
-76 -54 -51 -84 -89 -93 -115 -7 -21 -18 -45 -23 -53 -6 -7 -13 -47 -16 -90
-5 -69 -7 -76 -28 -79 -16 -3 -36 11 -72 46 -28 28 -50 55 -50 62 0 6 -6 10
-12 7 -7 -2 -18 3 -24 11 -7 9 -30 14 -70 15 -51 0 -65 -4 -90 -26 -16 -14
-39 -34 -51 -44 -28 -23 -83 -129 -83 -159 0 -12 -4 -34 -10 -49 -5 -14 -11
-40 -12 -58 -1 -18 -6 -38 -12 -45 -12 -17 -20 -202 -8 -202 5 0 8 -16 8 -35
-1 -40 -3 -41 -96 -50 -66 -7 -150 -39 -150 -57 0 -6 -6 -8 -13 -5 -13 5 -40
-17 -31 -26 6 -6 -39 -74 -64 -96 -12 -10 -24 -43 -32 -84 -14 -76 -19 -197
-7 -197 4 0 7 -11 7 -25 0 -17 16 -42 45 -73 25 -26 45 -50 45 -53 0 -4 16 -9
37 -12 20 -4 55 -21 77 -39 38 -31 46 -33 109 -32 47 1 74 7 86 18 10 9 21 16
24 16 19 0 68 58 87 103 38 87 15 166 -46 167 -12 0 -25 7 -28 16 -4 9 -9 14
-12 11 -3 -3 -13 1 -22 9 -10 7 -25 20 -36 27 -24 17 -39 104 -19 111 7 3 13
16 13 29 0 35 35 76 63 72 40 -5 111 -50 129 -83 10 -18 14 -32 10 -32 -4 0 1
-7 11 -15 12 -8 19 -27 20 -49 0 -19 4 -33 8 -31 3 3 5 -21 3 -53 -2 -31 -5
-73 -6 -92 0 -19 -4 -37 -7 -40 -14 -11 -41 -60 -41 -74 0 -7 -7 -16 -15 -20
-8 -3 -15 -12 -15 -20 0 -18 -58 -107 -77 -119 -7 -4 -13 -17 -13 -27 0 -20
-6 -27 -118 -147 -67 -71 -69 -72 -107 -66 -22 3 -50 17 -63 30 -12 12 -33 23
-45 23 -12 0 -33 12 -46 26 -13 14 -36 31 -50 39 -24 13 -165 159 -167 173 0
4 -6 21 -13 37 -7 17 -15 44 -18 60 -4 17 -11 33 -17 37 -8 6 -8 8 0 8 12 0
11 27 -4 75 -5 17 -7 36 -4 44 3 8 0 11 -7 7 -14 -9 -14 7 0 21 6 6 12 49 13
95 1 45 7 92 12 103 6 11 12 45 13 75 3 59 23 120 40 120 6 0 11 5 11 10 0 6
17 26 37 45 30 29 45 35 79 35 23 0 44 -5 46 -11 2 -5 22 -13 44 -16 40 -5 41
-4 48 27 13 65 7 100 -20 125 -14 13 -29 24 -33 23 -26 -3 -41 6 -55 35 -9 17
-25 46 -35 62 -30 51 -52 125 -41 144 5 10 7 26 4 37 -7 25 33 114 54 121 9 4
30 15 46 26 l29 21 23 -29 c12 -16 22 -31 22 -34 -1 -3 2 -14 6 -23 4 -9 3
-25 -3 -37 -17 -31 -13 -70 9 -83 11 -7 20 -17 20 -21 0 -13 27 -37 34 -30 3
4 6 -1 6 -10 0 -9 7 -17 15 -17 8 0 15 -4 15 -9 0 -5 11 -4 25 2 15 8 25 20
25 34 0 12 5 25 10 28 6 4 10 30 9 58 -2 75 40 237 61 237 4 0 11 11 14 24 3
14 19 38 36 54 16 17 34 42 40 56 10 27 4 56 -11 56 -4 0 -16 16 -25 36 -20
43 -47 55 -88 40 -43 -16 -102 -75 -115 -116 -6 -19 -22 -48 -36 -65 l-25 -30
-20 23 c-11 13 -24 21 -28 18 -5 -3 -20 4 -34 17 -16 15 -39 23 -73 25 -28 2
-56 8 -62 15 -10 10 -29 10 -78 3 -36 -6 -65 -14 -65 -19 0 -4 -9 -5 -20 -2
-11 3 -20 2 -20 -4 0 -5 -10 -13 -22 -17 -13 -4 -25 -9 -28 -13 -9 -12 -50
-31 -64 -31 -21 0 -65 -49 -73 -80 -3 -14 -13 -35 -20 -47 -9 -14 -16 -56 -18
-110 -5 -121 11 -173 77 -254 39 -48 47 -73 26 -81 -7 -3 -44 -11 -82 -19 -37
-7 -70 -19 -73 -26 -3 -7 -11 -13 -19 -13 -8 0 -14 -4 -14 -10 0 -5 -9 -10
-21 -10 -13 0 -25 -11 -34 -33 -7 -18 -23 -41 -34 -51 -12 -11 -21 -24 -21
-31 0 -16 -34 -55 -48 -55 -6 0 -14 -21 -17 -47 -19 -148 -35 -245 -41 -255
-13 -21 -2 -186 14 -197 4 -3 9 -42 10 -86 3 -120 7 -162 18 -177 6 -7 16 -32
22 -54 7 -23 19 -47 27 -54 8 -7 15 -18 15 -24 0 -14 108 -159 123 -165 5 -2
26 -19 46 -38 20 -19 48 -42 64 -51 15 -9 27 -20 27 -24 0 -4 7 -8 15 -8 8 0
15 -5 15 -11 0 -5 4 -8 9 -4 5 3 12 1 16 -5 3 -5 22 -10 41 -10 19 0 34 -4 34
-8 0 -4 12 -7 28 -7 15 1 37 -2 50 -7 12 -4 82 -8 155 -9 72 -1 137 -6 144
-11 14 -11 101 0 109 13 3 5 14 9 25 9 20 0 89 39 123 71 11 11 26 19 34 19 7
0 35 22 60 49 65 69 74 79 103 128 14 24 29 40 33 36 4 -5 6 -3 4 2 -4 13 36
78 84 136 23 28 38 56 38 72 0 15 4 27 9 27 8 0 22 59 40 170 9 57 8 91 -5
150 -4 19 -8 49 -8 65 -1 17 -9 37 -18 46 -10 9 -15 19 -12 22 9 9 -27 78 -37
71 -5 -3 -8 -2 -7 3 4 13 -30 70 -46 76 -17 7 -48 66 -40 78 3 5 0 9 -7 9 -17
0 -6 164 16 252 18 72 33 86 68 64 45 -29 84 -29 132 -2 70 38 73 33 71 -102
-2 -64 1 -121 5 -127 7 -11 26 -90 35 -145 2 -19 8 -37 13 -40 5 -3 12 -20 16
-37 3 -18 11 -33 16 -33 6 0 8 -4 5 -9 -10 -16 13 -62 44 -91 17 -16 33 -42
36 -59 4 -17 11 -31 16 -31 5 0 6 -9 3 -20 -4 -11 -2 -20 4 -20 6 0 8 -6 5
-13 -2 -7 4 -22 16 -32 11 -10 20 -22 20 -27 0 -5 11 -21 25 -36 14 -15 23
-33 20 -40 -3 -7 0 -10 5 -7 6 4 13 -7 16 -24 4 -16 12 -32 20 -35 8 -3 14
-12 14 -19 0 -8 7 -20 15 -27 8 -7 15 -20 15 -30 0 -9 9 -29 21 -44 11 -14 18
-26 15 -26 -3 0 2 -9 12 -19 31 -35 42 -50 42 -58 0 -5 9 -14 20 -21 11 -7 20
-19 20 -28 0 -9 16 -35 35 -58 19 -24 35 -48 35 -54 0 -6 4 -12 8 -14 14 -6
52 -66 52 -82 0 -9 4 -16 8 -16 5 0 18 -18 31 -40 12 -22 30 -45 40 -52 10 -7
34 -34 53 -59 40 -53 56 -73 79 -97 19 -20 52 -82 44 -82 -3 0 6 -12 20 -27
14 -15 25 -31 25 -35 0 -5 6 -8 14 -8 8 0 20 -13 27 -29 7 -16 17 -27 21 -25
4 3 8 -4 8 -15 0 -11 11 -33 25 -49 14 -17 25 -37 25 -45 0 -9 4 -18 9 -22 16
-9 71 -95 71 -109 0 -12 -78 -81 -92 -81 -8 0 -53 -49 -93 -100 -43 -55 -86
-142 -79 -160 4 -8 2 -21 -4 -28 -5 -6 -12 -34 -15 -62 -7 -63 -10 -76 -22
-94 -5 -9 -5 -16 2 -18 6 -2 8 -22 5 -48 -2 -26 0 -45 5 -45 5 0 10 -6 11 -12
5 -84 12 -120 22 -133 6 -8 9 -19 5 -25 -6 -10 53 -132 67 -138 5 -2 8 -9 8
-15 0 -14 76 -97 89 -97 17 0 81 -69 81 -87 0 -28 -23 -73 -38 -73 -7 0 -15
-7 -18 -15 -4 -8 -13 -15 -20 -15 -15 0 -76 -39 -82 -52 -2 -5 -10 -8 -18 -8
-8 0 -14 -4 -14 -10 0 -5 -6 -10 -14 -10 -8 0 -22 -8 -32 -17 -10 -10 -31 -18
-47 -19 -16 -1 -32 -6 -36 -11 -3 -6 -23 -13 -43 -17 -21 -4 -43 -12 -50 -19
-12 -11 -41 -17 -98 -18 -14 0 -31 -6 -38 -11 -8 -7 -66 -12 -143 -12 -112 -1
-133 2 -143 16 -7 9 -21 17 -32 18 -53 2 -74 6 -74 13 0 5 -4 6 -9 3 -5 -3
-11 1 -15 9 -3 9 -19 15 -41 15 -19 0 -35 5 -35 10 0 6 -13 10 -30 10 -17 0
-30 5 -30 12 0 13 -47 58 -61 58 -4 0 -4 12 1 28 16 48 18 121 3 141 -7 11 -9
22 -4 25 5 4 7 42 4 89 -3 45 -5 108 -4 139 0 31 -4 60 -9 63 -6 4 -7 13 -1
23 5 9 7 31 5 47 -1 17 0 36 4 42 5 8 60 15 166 19 l158 7 24 -27 c14 -14 20
-26 14 -26 -13 0 -13 -60 0 -94 5 -15 5 -28 0 -31 -5 -3 -5 -19 1 -38 5 -17 9
-52 9 -77 0 -25 0 -52 0 -60 1 -8 1 -42 1 -75 1 -122 2 -135 10 -135 5 0 9 -7
9 -15 0 -8 11 -17 25 -21 14 -3 25 -11 25 -16 0 -16 121 -3 131 14 7 10 9 10
9 1 0 -17 30 -16 52 0 15 12 16 41 12 298 -2 156 -7 316 -10 354 -4 39 -8 124
-9 191 -1 67 -5 126 -9 132 -3 6 -2 12 3 14 6 2 6 18 2 38 -4 19 -4 53 0 75 6
32 4 44 -12 61 -10 11 -19 26 -19 32 0 7 -9 12 -21 12 -11 0 -17 5 -14 10 7
11 7 11 -100 11 -142 0 -145 0 -145 -15 0 -8 -5 -16 -10 -18 -6 -2 -13 -41
-16 -88 -2 -47 -5 -92 -6 -100 0 -8 2 -55 6 -105 10 -116 2 -129 -81 -131 -32
-1 -60 -3 -63 -4 -3 -1 -32 -4 -65 -5 -33 -2 -64 -4 -70 -6 -21 -6 -55 13 -59
34 -10 46 -17 114 -20 177 -2 36 -5 67 -6 70 -4 7 -7 30 -9 72 -1 32 -7 42
-41 64 -40 27 -72 30 -223 24 -26 -2 -40 -47 -28 -93 5 -22 7 -45 4 -52 -2 -8
0 -22 5 -32 6 -10 13 -72 17 -138 3 -65 10 -124 15 -130 5 -6 7 -30 5 -53 -2
-23 0 -44 4 -46 5 -3 6 -26 3 -51 -2 -26 0 -45 5 -45 5 0 8 -15 7 -32 -6 -51
-5 -120 0 -126 9 -8 -14 -42 -29 -42 -7 0 -17 9 -20 20 -3 11 -12 20 -19 20
-16 0 -47 60 -39 74 3 5 2 6 -3 3 -6 -3 -16 15 -23 41 -8 26 -30 81 -50 122
-19 41 -34 80 -33 87 1 6 -7 35 -18 65 -23 61 -23 61 -10 53 13 -8 13 -5 -5
45 -17 47 -20 90 -5 55 7 -14 8 -9 4 17 -9 57 -9 106 1 183 4 39 9 84 11 100
1 17 5 44 9 60 3 17 7 40 7 52 0 13 4 21 8 18 5 -3 11 8 15 25 4 16 15 36 24
42 10 7 23 30 30 51 7 20 16 37 21 37 5 0 18 19 28 43 19 43 22 45 165 119 47
26 72 12 56 -30 -18 -46 -27 -112 -17 -118 5 -4 7 -17 4 -30 -4 -14 -2 -24 4
-24 5 0 10 -8 10 -18 0 -33 72 -96 93 -80 2 2 12 -6 68 -53 39 -33 205 -35
236 -3 8 8 20 14 26 14 7 0 21 11 31 25 10 14 24 25 30 25 15 0 46 36 39 44
-4 3 1 14 9 23 39 43 52 187 24 254 -7 16 -30 48 -52 71 -21 23 -43 51 -49 62
-7 14 -22 22 -45 24 -20 2 -56 19 -84 39 -43 31 -58 36 -144 44 -53 6 -100 12
-104 15 -5 3 -14 1 -21 -4 -7 -5 -38 -12 -71 -15 -37 -4 -66 -13 -80 -25 -11
-11 -26 -18 -33 -15 -6 2 -16 -5 -22 -15 -7 -13 -17 -18 -30 -15 -13 3 -31 -6
-53 -26 -18 -17 -38 -29 -45 -27 -6 3 -14 -2 -17 -9 -3 -8 -12 -12 -20 -9 -23
9 -159 -141 -194 -213 -9 -18 -19 -33 -24 -33 -4 0 -5 -6 -2 -14 3 -8 1 -17
-5 -21 -6 -3 -8 -17 -5 -30 3 -12 1 -26 -5 -29 -6 -4 -11 -18 -11 -31 0 -13
-4 -26 -9 -29 -10 -7 -30 -109 -35 -184 -4 -62 -9 -69 -39 -55 -65 31 -99 44
-104 39 -3 -3 -12 2 -20 10 -15 14 -42 14 -75 0 -11 -5 -23 -2 -33 8 -16 16
-26 15 -92 -1 -16 -3 -32 -6 -36 -5 -4 1 -10 -4 -13 -12 -3 -8 -13 -12 -25 -9
-10 3 -19 0 -19 -6 0 -6 -6 -11 -13 -11 -7 0 -19 -8 -27 -18 -38 -45 -70 -92
-70 -101 0 -6 -6 -11 -14 -11 -9 0 -18 -17 -24 -42 -6 -24 -17 -67 -25 -96
-10 -35 -13 -63 -7 -82 5 -17 6 -30 3 -30 -3 0 1 -10 10 -23 8 -12 18 -37 22
-55 7 -33 47 -82 66 -82 6 0 7 -5 4 -10 -3 -6 2 -13 12 -17 10 -3 37 -21 60
-40 23 -18 46 -33 51 -33 9 0 59 -22 94 -41 10 -5 24 -9 31 -9 32 0 117 -58
117 -80 0 -5 8 -11 18 -14 9 -3 29 -16 44 -28 15 -13 40 -33 56 -46 23 -17 30
-32 35 -73 5 -39 3 -55 -9 -66 -8 -9 -22 -26 -31 -39 -9 -14 -25 -24 -38 -24
-12 0 -40 -7 -61 -17 -42 -17 -223 -21 -234 -4 -21 34 -55 71 -65 71 -34 0
-98 120 -94 175 4 40 -4 51 -52 76 -54 27 -106 18 -113 -20 -9 -50 -5 -100 10
-136 8 -20 12 -40 9 -44 -3 -5 2 -11 10 -15 8 -3 15 -14 15 -24 0 -10 12 -30
28 -45 15 -14 32 -31 39 -37 45 -45 66 -60 83 -60 10 0 20 -3 22 -7 5 -13 93
-53 124 -57 16 -2 37 -7 46 -11 10 -4 36 -8 58 -8 22 -1 40 -6 40 -10 0 -5 10
-5 23 -1 12 4 36 8 52 9 17 1 39 6 49 10 15 6 17 5 11 -5 -6 -10 -4 -12 11 -6
10 5 33 13 49 18 17 6 34 15 39 19 6 5 18 9 27 9 9 0 27 14 40 30 13 17 37 45
53 63 36 41 56 87 56 131 0 19 5 38 10 41 6 3 10 14 10 23 0 9 4 24 9 31 8 12
13 11 30 -10 11 -13 20 -29 21 -34 0 -6 20 -33 45 -60 25 -28 45 -54 45 -60 0
-13 72 -88 116 -121 19 -15 34 -33 34 -40 0 -8 7 -14 15 -14 9 0 20 -11 25
-24 5 -15 20 -27 39 -31 17 -3 33 -14 36 -23 6 -18 97 -78 155 -101 19 -8 39
-20 43 -28 4 -7 19 -13 33 -13 14 0 38 -6 52 -14 57 -29 81 -35 187 -47 61 -7
113 -16 116 -22 4 -5 40 -9 80 -10 80 0 100 3 111 17 4 6 36 12 72 14 36 2 66
8 66 12 0 11 122 40 169 40 22 0 60 9 86 20 26 11 61 20 78 20 20 0 27 3 19 8
-9 6 -5 12 13 20 15 7 30 10 35 7 4 -3 10 1 13 9 3 7 20 16 37 20 18 3 59 24
92 46 33 22 66 40 74 40 7 0 16 5 19 11 4 6 13 8 21 5 8 -3 14 -2 14 2 0 10
51 32 61 26 5 -3 9 2 9 10 0 8 10 18 22 22 12 3 28 13 36 20 7 8 25 17 40 21
15 3 33 12 40 20 12 11 41 18 65 14 4 0 7 4 7 9 0 6 11 10 24 10 14 0 28 4 31
10 3 5 14 10 23 10 9 0 33 16 52 35 19 19 40 35 47 35 7 0 13 3 14 8 4 38 12
69 21 79 6 7 7 13 4 13 -4 0 0 10 8 22 9 12 16 31 16 42 0 11 10 30 22 43 12
13 21 35 20 53 0 17 3 28 8 25 5 -3 9 20 9 52 -1 32 0 72 1 88 3 65 -5 153
-14 148 -5 -4 -6 -1 -2 5 6 10 -12 60 -46 129 -6 12 -8 29 -5 37 4 9 2 16 -3
16 -5 0 -12 16 -16 35 -3 20 -15 40 -25 46 -11 5 -16 15 -13 21 4 7 3 8 -4 4
-8 -4 -12 0 -12 11 0 13 -2 15 -9 5 -15 -24 -48 42 -57 112 -7 62 -7 63 -50
191 -21 66 -42 122 -46 123 -5 2 -8 14 -8 27 0 23 -18 74 -30 85 -3 3 -17 28
-31 55 -60 115 -75 138 -99 150 -27 14 -83 86 -94 122 -4 11 -31 45 -61 74
-30 29 -55 57 -55 62 0 4 -11 20 -25 35 -14 15 -23 33 -20 40 4 12 -8 31 -55
82 -39 41 -93 121 -93 136 0 8 -4 14 -8 14 -5 0 -17 16 -27 36 -10 20 -23 35
-28 35 -5 -1 -9 2 -10 7 -2 15 -18 48 -32 65 -8 9 -11 17 -7 17 5 0 -1 9 -13
20 -12 12 -23 27 -23 35 -1 8 -2 20 -3 26 0 6 -9 16 -18 23 -10 7 -18 18 -18
25 0 6 -5 11 -12 11 -6 0 -8 3 -5 6 3 4 -9 22 -28 41 -35 35 -39 43 -36 76 1
9 -1 17 -6 17 -5 0 -19 27 -32 60 -13 33 -28 60 -34 60 -5 0 -7 6 -4 14 3 8
-1 17 -9 20 -8 3 -14 13 -14 22 0 9 -11 39 -25 67 -14 27 -24 55 -22 61 2 6
-2 17 -9 24 -8 7 -19 32 -26 55 -6 23 -16 45 -21 48 -5 3 -9 10 -9 15 -1 13
-8 34 -23 67 -6 16 -11 48 -10 73 1 24 -2 44 -7 44 -4 0 -7 3 -7 8 1 4 0 10
-1 15 -1 4 -3 10 -4 15 -1 4 -7 16 -12 27 -6 11 -10 31 -9 45 2 14 4 54 5 90
2 36 7 71 13 78 5 7 11 22 13 35 2 12 5 30 7 41 5 25 64 84 85 85 9 1 41 3 70
5 28 2 52 0 52 -3 0 -3 20 -17 45 -30 25 -13 45 -30 45 -38 0 -8 14 -35 31
-59 18 -26 28 -52 25 -61 -4 -8 -1 -22 5 -29 6 -8 9 -28 6 -46 -2 -18 0 -42 6
-53 6 -11 12 -37 13 -58 1 -21 7 -44 14 -52 28 -34 120 -61 120 -35 0 6 6 10
14 10 16 0 31 34 21 50 -3 5 -2 10 3 10 5 0 12 33 16 73 4 39 9 96 12 126 2
30 11 66 18 80 24 45 59 173 49 180 -5 3 -12 14 -16 24 -5 14 -13 17 -29 11
-20 -6 -21 -5 -9 10 12 14 11 16 -3 16 -9 0 -16 6 -16 14 0 22 -56 38 -71 20
-6 -7 -14 -12 -18 -10 -4 3 -8 -4 -8 -15 -2 -28 -18 -44 -54 -60 -25 -10 -32
-10 -39 1 -4 7 -17 10 -29 7 -12 -3 -19 -1 -15 4 3 5 -2 9 -10 9 -9 0 -16 5
-16 11 0 6 -7 8 -16 5 -11 -4 -18 1 -21 14 -3 11 -12 20 -19 20 -8 0 -14 5
-14 11 0 6 -6 9 -14 6 -8 -3 -17 1 -20 8 -3 9 -12 12 -22 8 -11 -4 -15 -2 -11
4 5 7 -11 13 -41 17 -80 11 -162 13 -162 4z m-1620 -2980 c39 -1 172 -69 166
-84 -3 -8 -1 -13 3 -11 11 3 54 -44 77 -83 10 -16 22 -30 26 -30 4 0 4 -10 -1
-23 -9 -22 5 -115 18 -127 4 -3 6 -23 6 -46 1 -37 -1 -40 -20 -36 -11 3 -28
16 -38 29 -10 13 -24 23 -31 23 -7 0 -28 14 -46 30 -18 17 -39 30 -46 30 -7 0
-26 11 -42 25 -17 14 -36 25 -42 25 -7 0 -25 12 -40 28 -16 15 -41 38 -57 52
-24 22 -28 33 -30 85 -3 71 4 108 17 100 6 -3 10 1 10 10 0 11 6 14 23 10 12
-3 33 -6 47 -7z m2347 -333 c12 -55 19 -114 17 -131 -3 -18 -1 -34 4 -38 10
-6 7 -32 -5 -66 -4 -8 -5 -19 -3 -25 16 -57 17 -77 5 -81 -7 -3 -11 -14 -8
-25 3 -10 0 -19 -6 -19 -6 0 -13 0 -16 0 -3 0 -6 3 -7 7 -2 4 -13 18 -25 32
-23 24 -31 47 -13 36 14 -9 12 7 -5 29 -10 13 -11 24 -4 37 7 13 5 27 -4 46
-10 19 -12 35 -6 52 10 26 8 73 -4 82 -4 3 -3 19 3 35 6 16 6 42 2 59 -11 38
6 76 33 73 16 -3 23 -20 42 -103z m-1617 -455 c0 -5 -5 -10 -11 -10 -5 0 -7 5
-4 10 3 6 8 10 11 10 2 0 4 -4 4 -10z"/>
<path d="M7064 7333 c-7 -4 -15 -25 -18 -45 -5 -30 -3 -38 10 -38 9 0 12 -5 8
-12 -5 -8 -2 -9 10 -5 10 4 15 3 11 -3 -3 -5 9 -23 27 -40 l33 -32 2 -153 c2
-94 -1 -156 -7 -160 -6 -3 -7 -18 -4 -32 4 -16 3 -24 -3 -20 -6 4 -9 -36 -9
-105 1 -80 5 -113 14 -116 6 -2 10 -7 7 -12 -8 -13 -10 -214 -2 -226 3 -6 3
-25 -2 -41 -5 -17 -5 -48 -1 -71 4 -22 3 -47 -2 -56 -5 -9 -7 -25 -3 -35 3
-11 2 -22 -3 -25 -5 -3 -7 -17 -4 -31 2 -15 0 -25 -7 -25 -7 0 -9 -4 -6 -10 3
-5 2 -10 -3 -10 -12 0 -37 30 -26 30 5 0 4 4 -2 8 -6 4 -21 28 -33 54 -11 26
-25 50 -31 53 -5 3 -10 19 -10 34 0 16 -6 34 -14 41 -8 6 -12 18 -9 26 3 8 -1
14 -11 14 -9 0 -16 8 -16 18 0 9 -9 32 -20 50 -23 37 -25 46 -8 36 6 -4 4 3
-5 17 -9 13 -17 40 -17 60 0 20 -7 42 -15 49 -8 7 -15 18 -15 26 0 7 -7 17
-15 22 -9 4 -17 19 -19 33 -3 29 -15 59 -31 79 -6 8 -20 43 -30 78 -10 35 -22
65 -27 68 -4 3 -5 16 -2 30 4 16 2 24 -7 24 -7 0 -9 3 -6 6 3 4 1 16 -5 27 -6
12 -11 34 -10 49 0 17 -3 26 -10 22 -6 -4 -8 1 -4 14 4 11 3 29 -3 39 -20 39
-35 89 -33 110 2 13 -2 23 -8 23 -6 0 -9 4 -5 9 3 6 8 27 11 49 5 35 2 41 -29
65 -33 25 -40 26 -168 26 -74 1 -147 3 -164 5 -16 2 -38 -2 -48 -9 -21 -15
-14 -36 29 -88 13 -16 24 -34 24 -42 0 -7 7 -18 15 -25 9 -7 14 -19 11 -26 -3
-7 1 -18 9 -24 9 -8 11 -19 5 -41 -5 -16 -5 -42 0 -58 4 -15 4 -47 0 -69 -4
-22 -4 -46 1 -53 4 -7 6 -16 4 -19 -2 -4 -5 -24 -7 -44 -1 -22 -8 -41 -16 -44
-20 -7 -52 37 -52 71 0 16 -3 26 -7 24 -5 -3 -9 11 -11 31 -1 21 -7 39 -12 40
-6 2 -10 13 -10 23 0 11 -7 34 -16 51 -9 16 -11 27 -5 24 24 -15 7 5 -79 94
-49 51 -90 96 -90 100 0 4 -23 10 -52 13 -28 4 -56 11 -62 17 -5 5 -17 10 -26
10 -8 0 -22 9 -29 19 -8 11 -20 17 -27 14 -7 -2 -22 1 -34 7 -15 8 -25 9 -32
2 -6 -6 -16 -8 -23 -6 -6 3 -17 -2 -24 -10 -6 -7 -21 -12 -31 -9 -11 3 -20 0
-20 -6 0 -6 -9 -11 -20 -11 -11 0 -20 -4 -20 -10 0 -5 -8 -10 -18 -10 -11 0
-27 -9 -37 -20 -10 -11 -24 -20 -32 -20 -7 0 -13 -9 -13 -19 0 -10 -7 -21 -15
-25 -8 -3 -15 -12 -15 -21 0 -8 -8 -15 -18 -15 -18 0 -45 -47 -51 -90 0 -5 -7
-7 -15 -4 -10 4 -12 -1 -9 -19 3 -16 -3 -33 -20 -51 -14 -15 -29 -42 -32 -59
-4 -18 -13 -46 -21 -64 -8 -17 -19 -51 -24 -75 -9 -44 -31 -125 -45 -165 -4
-13 -11 -23 -15 -23 -5 0 -11 -17 -14 -37 -3 -21 -9 -58 -12 -83 -4 -25 -8
-70 -10 -100 -1 -30 -6 -93 -11 -140 -5 -47 -6 -101 -3 -120 4 -19 3 -47 -1
-61 -8 -32 -1 -79 13 -79 5 0 6 -5 2 -11 -3 -6 0 -15 7 -20 11 -6 11 -9 1 -9
-10 0 -9 -5 2 -22 8 -13 14 -39 14 -59 0 -20 10 -55 22 -78 12 -24 19 -49 16
-56 -3 -8 0 -15 5 -17 6 -2 12 -16 13 -30 2 -15 11 -40 22 -55 10 -15 19 -36
21 -45 7 -42 51 -116 94 -158 53 -52 75 -70 85 -70 4 0 12 -7 18 -15 11 -16
17 -17 121 -35 33 -6 69 -15 80 -20 43 -19 85 -28 90 -21 2 5 23 11 46 14 23
3 45 9 48 14 3 4 22 16 41 26 59 30 95 52 102 62 4 6 8 6 8 2 0 -12 30 20 30
32 0 6 5 11 11 11 12 0 59 49 59 61 0 3 11 18 25 34 14 15 29 40 32 56 3 16 9
29 13 29 4 0 10 14 14 30 4 21 11 30 26 30 23 0 22 3 25 -110 1 -53 -3 -93
-11 -105 -6 -11 -15 -37 -18 -58 -7 -39 -46 -117 -74 -149 -13 -16 -13 -21 2
-52 25 -52 70 -96 100 -96 14 0 26 -4 26 -9 0 -5 10 -9 23 -9 40 1 177 -25
177 -34 0 -4 10 -8 23 -8 25 0 56 29 50 47 -3 7 0 21 6 31 9 16 3 27 -29 62
-36 39 -44 58 -43 113 0 9 -5 17 -10 17 -5 0 -7 6 -4 14 3 7 1 18 -4 23 -5 5
-9 172 -10 373 -1 450 -2 417 16 424 18 7 20 -5 3 -23 -7 -7 -8 -11 -3 -9 27
8 96 -116 79 -143 -3 -5 0 -9 6 -9 6 0 9 -4 6 -8 -3 -5 1 -19 8 -33 7 -13 11
-30 8 -37 -2 -6 3 -12 12 -12 9 0 16 -8 16 -20 0 -11 4 -20 8 -20 11 0 42 -66
42 -90 0 -10 4 -21 10 -25 5 -3 7 -12 4 -19 -3 -7 2 -16 11 -20 9 -3 14 -10
11 -15 -3 -5 0 -14 8 -20 8 -7 12 -19 10 -29 -3 -9 9 -39 26 -65 16 -26 36
-66 43 -88 6 -21 15 -39 19 -39 5 0 8 -9 8 -20 0 -12 9 -33 20 -48 11 -15 21
-42 23 -60 2 -19 10 -37 17 -42 7 -4 9 -13 6 -19 -4 -6 -3 -11 3 -11 6 0 8 -6
5 -14 -6 -14 43 -128 57 -134 4 -2 5 -10 2 -18 -3 -8 -1 -14 4 -14 5 0 9 -10
10 -21 1 -12 8 -29 16 -38 8 -9 12 -22 10 -29 -3 -7 2 -21 10 -30 8 -9 17 -29
21 -44 3 -16 11 -28 16 -28 6 0 10 -10 10 -22 0 -12 3 -19 6 -15 11 10 36 -22
30 -38 -4 -11 2 -15 18 -15 14 0 31 -2 38 -5 8 -3 23 4 35 15 12 11 27 20 33
20 16 0 9 110 -8 137 -20 33 -23 260 -4 338 8 33 16 96 19 140 6 95 6 433 1
560 -2 50 0 101 4 114 5 14 6 32 2 40 -3 9 -6 50 -5 91 7 602 9 683 18 688 6
4 13 21 17 37 5 23 2 36 -14 53 -18 19 -19 24 -6 44 7 13 16 53 19 90 3 42 12
77 23 95 11 15 19 35 18 43 -1 8 -2 20 -3 26 -2 20 -87 53 -146 58 -33 2 -78
7 -100 11 -22 3 -45 2 -51 -2z m-1186 -173 c12 -16 22 -33 22 -38 0 -5 7 -23
16 -40 8 -18 12 -37 8 -43 -3 -6 -1 -15 6 -19 9 -5 9 -13 1 -27 -5 -11 -8 -23
-4 -26 3 -4 7 -19 9 -34 3 -29 11 -68 14 -68 4 0 11 -131 11 -212 0 -51 4 -93
8 -93 10 0 7 -168 -4 -193 -4 -9 -2 -23 4 -31 6 -7 8 -16 3 -20 -4 -4 -8 -58
-8 -120 -1 -67 -8 -134 -17 -167 -8 -30 -18 -110 -21 -179 -11 -236 -20 -292
-51 -324 -8 -8 -15 -23 -15 -34 0 -21 -59 -92 -77 -92 -20 0 -42 37 -59 95
-16 61 -21 98 -29 235 -2 41 -5 77 -6 80 -1 6 0 78 5 380 2 124 0 230 -4 235
-4 6 -4 32 0 58 4 27 6 65 4 85 -6 77 -7 118 -1 147 13 72 20 135 21 200 0 39
4 75 7 80 4 6 13 37 20 70 7 33 19 64 26 68 7 4 13 14 13 22 0 12 38 32 66 34
5 1 20 -12 32 -29z"/>
<path d="M830 7215 c-10 -12 -16 -13 -26 -4 -11 9 -18 8 -29 -1 -8 -6 -19 -9
-25 -5 -6 4 -22 0 -35 -9 -13 -9 -31 -16 -39 -16 -8 0 -23 -10 -33 -23 -10
-13 -32 -31 -49 -41 -19 -11 -38 -35 -49 -63 -10 -24 -29 -56 -42 -71 -12 -15
-23 -34 -23 -42 0 -8 -11 -27 -24 -41 -13 -14 -27 -45 -31 -70 -4 -24 -11 -49
-16 -54 -4 -6 -19 -46 -33 -88 -19 -57 -24 -90 -20 -121 5 -30 2 -50 -9 -67
-11 -17 -17 -59 -20 -149 -3 -69 -7 -132 -9 -140 -3 -8 -10 -30 -16 -49 -7
-21 -8 -40 -2 -50 5 -11 5 -35 -1 -61 -5 -24 -6 -46 -2 -49 4 -3 8 -77 8 -163
0 -87 3 -158 6 -158 4 0 6 -52 4 -115 -1 -63 1 -115 5 -115 8 0 4 -285 -4
-299 -4 -6 -4 -16 0 -23 4 -6 9 -52 10 -102 2 -50 6 -152 9 -226 3 -74 7 -175
10 -225 2 -49 4 -92 5 -95 1 -3 3 -25 4 -50 2 -25 4 -49 5 -55 2 -5 4 -30 6
-55 3 -55 10 -101 23 -157 6 -26 6 -43 1 -43 -5 0 -3 -11 6 -23 12 -19 13 -30
3 -57 -9 -26 -9 -35 0 -38 7 -2 9 -8 6 -13 -3 -6 0 -16 6 -24 7 -8 13 -31 14
-52 1 -21 5 -43 8 -48 7 -11 29 -118 32 -150 0 -11 4 -25 8 -31 4 -6 10 -30
14 -52 4 -23 10 -42 15 -42 5 0 9 -13 9 -30 0 -20 5 -30 15 -30 12 0 13 -4 5
-19 -7 -14 -6 -21 2 -23 7 -3 13 -15 13 -29 1 -13 9 -39 18 -56 10 -18 17 -35
17 -38 -2 -30 45 -125 70 -140 6 -4 8 -15 5 -26 -4 -12 -1 -21 9 -25 9 -3 14
-10 11 -14 -3 -5 2 -16 11 -24 8 -9 13 -16 9 -16 -3 0 1 -13 10 -30 9 -16 22
-30 30 -30 8 0 15 -4 15 -9 0 -5 6 -16 13 -23 20 -21 52 -72 49 -80 -1 -4 8
-13 20 -19 12 -7 34 -23 48 -36 48 -45 115 -93 131 -93 8 0 20 -5 25 -10 6 -6
21 -12 33 -15 13 -2 38 -13 56 -24 47 -27 73 -28 124 -3 25 12 49 22 54 22 5
0 27 15 50 33 23 19 50 37 60 40 10 4 15 11 12 17 -3 5 -1 10 6 10 7 0 10 3 6
6 -3 3 3 16 14 28 11 11 23 33 26 48 3 15 11 29 18 32 7 2 16 17 20 33 3 15
11 31 17 34 6 4 12 19 13 33 2 15 7 32 12 39 16 21 36 124 29 150 -5 21 -1 27
31 42 28 14 40 15 52 6 9 -6 22 -14 29 -17 18 -9 62 23 62 45 0 19 71 91 90
91 6 0 10 6 10 14 0 7 13 27 30 44 16 17 27 37 25 44 -3 8 13 24 38 39 29 18
51 42 70 78 34 66 34 87 0 105 -16 8 -23 16 -18 17 6 1 -6 4 -25 8 -27 5 -37
13 -45 36 -5 17 -14 33 -19 36 -5 4 -8 42 -7 85 2 90 2 88 -3 129 -2 17 0 35
4 40 4 6 10 25 12 43 4 26 2 32 -10 27 -10 -4 -12 0 -7 12 4 10 9 68 11 128 5
131 9 155 31 155 8 0 23 8 32 18 14 16 73 43 106 48 28 5 55 17 55 26 0 6 6 8
14 5 8 -3 20 0 26 8 6 8 26 17 43 21 17 3 37 13 43 21 9 13 14 13 32 2 15 -9
20 -21 17 -43 -2 -16 -1 -34 2 -40 6 -10 13 -90 13 -155 0 -28 -49 -136 -69
-151 -3 -3 -16 -23 -27 -45 -16 -30 -20 -46 -13 -63 5 -13 13 -21 18 -17 6 3
18 -3 28 -13 27 -28 58 -33 77 -11 9 11 23 19 31 19 8 0 15 7 15 15 0 9 7 18
15 21 8 4 15 12 15 19 0 8 20 28 45 46 25 18 45 36 45 41 0 4 6 8 14 8 8 0 17
8 20 18 4 11 19 25 34 33 15 8 37 24 50 37 13 12 31 22 40 22 10 0 24 9 32 20
8 11 21 20 30 20 14 0 120 106 120 120 0 23 -49 76 -75 80 -18 3 -35 15 -44
32 -19 33 -8 47 17 25 10 -10 25 -17 34 -17 8 0 18 -3 22 -7 4 -4 26 -15 49
-23 40 -15 44 -15 80 3 35 18 64 58 58 81 -1 5 4 13 11 17 10 6 8 9 -6 9 -14
0 -17 5 -13 21 3 11 -1 36 -9 54 -11 28 -21 35 -51 41 -21 4 -53 13 -72 21
-45 19 -81 9 -128 -36 l-39 -38 -23 25 c-14 16 -20 33 -17 45 3 11 0 30 -7 41
-6 12 -12 30 -13 41 -1 11 -6 32 -13 48 -6 16 -7 27 -1 27 6 0 5 11 -1 28 -6
15 -13 36 -14 47 -8 56 -25 108 -40 125 -10 11 -12 20 -6 24 11 7 8 20 -14 71
-7 17 -16 47 -20 68 -4 20 -11 37 -16 37 -5 0 -9 11 -9 24 0 13 -7 27 -16 30
-12 5 -14 13 -10 33 7 26 -11 120 -26 138 -4 5 -8 25 -8 45 0 19 -7 58 -16 85
-9 28 -17 57 -18 65 -1 9 -5 20 -8 25 -3 6 -11 37 -18 70 -7 33 -17 69 -22 79
-6 11 -11 44 -13 75 -1 31 -10 79 -18 106 -9 28 -15 59 -13 70 2 11 -1 26 -7
33 -6 7 -11 23 -11 35 -1 12 -5 28 -9 35 -5 7 -6 21 -2 31 3 10 -1 25 -8 33
-8 8 -17 34 -21 59 -8 62 -11 73 -21 88 -4 8 -9 28 -11 45 -7 75 -12 103 -22
129 -7 15 -12 38 -11 50 0 30 -9 86 -17 99 -4 6 0 14 7 19 11 7 10 9 -5 9 -15
0 -17 6 -13 33 2 18 -4 56 -15 87 -10 30 -22 63 -25 73 -3 9 -10 18 -17 18
-55 6 -70 10 -80 24 -10 14 -25 16 -79 12 -48 -3 -73 0 -87 10 -18 13 -60 12
-110 -2 -61 -17 -60 -17 -54 -44 3 -14 6 -34 7 -43 1 -10 5 -18 8 -18 4 0 11
-9 14 -20 4 -11 10 -18 14 -15 5 2 19 -7 31 -20 13 -14 29 -25 35 -25 12 0 29
-85 20 -100 -6 -10 -13 -131 -19 -320 -6 -182 -14 -314 -26 -437 -6 -56 -10
-154 -9 -217 1 -72 -2 -121 -9 -129 -7 -9 -11 -90 -10 -242 1 -127 -2 -264 -6
-305 -10 -100 -15 -264 -20 -620 -3 -162 -7 -338 -10 -390 -3 -52 -7 -169 -10
-260 -2 -91 -7 -173 -11 -182 -5 -12 -3 -18 6 -18 7 0 10 -3 6 -6 -13 -13 -73
18 -89 46 -16 28 -21 30 -64 26 -29 -2 -53 -11 -66 -24 -19 -18 -20 -24 -8
-51 15 -36 8 -61 -17 -61 -10 0 -26 -7 -36 -14 -21 -16 -23 -52 -11 -224 8
-109 7 -124 -8 -145 -10 -12 -18 -29 -18 -38 0 -20 -23 -69 -32 -69 -5 0 -8
-11 -8 -25 0 -42 -40 -101 -105 -154 -40 -33 -103 -7 -132 54 -8 17 -21 41
-28 55 -8 14 -15 35 -15 46 0 12 -7 35 -15 50 -8 16 -15 36 -15 45 0 9 -7 30
-15 45 -8 16 -15 38 -15 49 0 11 -7 30 -15 42 -8 12 -17 46 -19 76 -2 29 -11
67 -19 84 -9 16 -13 40 -10 52 3 11 -1 29 -8 38 -10 12 -10 14 -1 9 16 -9 16
11 0 21 -13 8 -17 27 -23 98 -1 22 -6 52 -10 67 -4 15 -9 40 -11 55 -5 38 -12
78 -14 78 -2 0 -11 126 -13 178 -1 27 -5 36 -14 33 -10 -4 -11 -1 -4 12 11 20
10 92 -1 92 -4 0 -6 17 -5 38 1 20 -3 43 -10 50 -9 9 -9 20 -2 40 8 20 7 38
-2 66 -9 27 -10 41 -3 43 12 4 7 51 -8 70 -5 6 -6 23 -2 37 3 14 2 26 -2 26
-5 0 -9 15 -10 33 -1 17 -3 87 -5 155 -2 67 -8 122 -12 122 -5 0 -6 8 -2 18 4
9 9 31 10 47 1 17 5 38 10 48 6 14 3 16 -11 11 -18 -5 -18 -5 -2 9 10 8 14 17
10 21 -6 6 -11 120 -11 249 0 9 0 32 0 50 0 17 0 56 0 86 -1 29 -6 60 -12 67
-9 11 -8 18 1 29 7 8 8 15 3 15 -12 0 -11 100 1 118 4 7 2 28 -4 48 -8 22 -8
39 -2 47 17 21 20 76 5 82 -9 3 -11 10 -6 17 13 22 14 59 2 74 -6 8 -8 21 -4
31 5 10 7 24 6 31 -1 7 2 28 8 45 7 21 7 46 1 72 -6 25 -6 41 0 43 6 2 6 10 1
21 -9 16 -8 43 3 111 10 56 18 143 18 175 -1 17 3 39 8 50 5 11 11 41 15 67 3
26 12 54 20 61 7 8 18 47 24 88 9 66 14 77 43 102 18 15 40 34 49 42 9 8 19
15 23 15 4 0 23 7 44 16 20 9 46 17 57 17 25 0 78 -14 85 -22 6 -8 57 -41 67
-44 10 -2 63 -108 63 -125 0 -7 6 -15 14 -18 10 -4 13 -18 11 -50 -2 -25 0
-44 6 -44 6 0 8 -12 4 -28 -4 -21 -1 -33 15 -47 11 -10 20 -26 20 -35 0 -9 8
-27 19 -38 33 -39 101 -22 101 25 0 11 4 23 9 29 5 5 12 38 15 74 13 141 28
235 38 247 6 7 10 31 10 53 0 22 4 42 9 45 12 8 -15 35 -35 35 -9 0 -18 11
-22 25 -3 14 -10 25 -14 25 -4 0 -10 9 -13 20 -7 28 -37 37 -52 17 -7 -10 -17
-17 -24 -17 -6 0 -11 -6 -11 -12 -1 -15 -38 -44 -75 -58 -19 -7 -27 -6 -31 3
-3 8 -15 13 -27 12 -12 -1 -32 9 -44 22 -12 12 -30 23 -40 23 -10 0 -24 9 -31
20 -7 12 -23 20 -41 20 -16 0 -31 6 -34 14 -3 7 -16 13 -29 12 -13 -1 -26 2
-29 7 -3 4 -44 10 -91 13 -69 4 -87 2 -98 -11z m1206 -1407 c4 -13 8 -32 10
-43 8 -58 44 -198 53 -209 6 -7 9 -20 5 -29 -3 -8 -1 -25 5 -36 6 -11 13 -50
16 -86 3 -36 10 -75 16 -86 5 -11 7 -29 4 -39 -4 -11 -2 -20 4 -20 5 0 13 -17
17 -37 4 -21 13 -50 20 -64 7 -15 11 -29 7 -32 -3 -4 -2 -14 2 -24 5 -10 7
-21 7 -25 -1 -5 2 -8 7 -8 10 0 22 -60 21 -107 0 -18 4 -33 10 -33 5 0 8 -15
6 -32 -3 -18 -5 -38 -5 -44 -1 -13 -69 -46 -82 -39 -5 4 -9 0 -9 -7 -1 -21
-85 -77 -108 -72 -11 3 -23 1 -26 -5 -4 -6 -12 -11 -17 -11 -11 0 -34 50 -29
65 2 6 4 51 5 101 1 51 5 97 9 103 4 6 2 11 -3 11 -10 0 -6 244 4 261 3 4 -1
9 -7 12 -10 3 -10 8 2 21 14 17 15 53 20 466 1 25 3 51 5 58 7 19 23 14 31
-10z m-395 -2220 c0 -7 2 -25 3 -40 2 -26 -16 -44 -34 -33 -10 6 -19 55 -13
72 7 17 43 17 44 1z"/>
<path d="M1616 3575 c-3 -9 -6 -22 -5 -28 0 -7 5 -1 10 12 5 13 8 26 5 28 -2
2 -6 -3 -10 -12z"/>
<path d="M7278 4536 c-24 -18 -48 -59 -48 -82 0 -11 -6 -34 -14 -50 -29 -61
-44 -100 -44 -114 0 -8 -10 -40 -21 -70 -12 -30 -19 -60 -17 -67 3 -7 1 -15
-4 -18 -6 -4 -10 -15 -10 -26 0 -10 -5 -19 -11 -19 -5 0 -8 -4 -4 -9 3 -5 1
-12 -5 -16 -5 -3 -10 -17 -10 -30 0 -13 -4 -26 -10 -30 -5 -3 -7 -12 -3 -21 3
-8 -1 -22 -10 -32 -8 -9 -17 -30 -19 -47 -2 -19 -9 -31 -21 -33 -22 -4 -56 27
-49 46 2 6 -1 12 -8 12 -6 0 -9 4 -6 9 4 5 0 22 -8 38 -8 15 -23 49 -35 74
-29 63 -47 77 -111 81 l-54 3 -22 -44 c-13 -24 -28 -47 -34 -51 -7 -4 -12 -19
-12 -34 0 -16 -6 -26 -15 -26 -9 0 -13 -8 -11 -23 1 -12 -7 -38 -18 -57 -11
-19 -29 -52 -40 -73 -10 -21 -25 -36 -32 -35 -7 2 -13 7 -12 11 0 4 -6 15 -15
23 -8 9 -15 24 -15 35 0 11 -4 27 -9 37 -21 38 -50 111 -70 173 -22 68 -50
129 -71 154 -7 8 -9 15 -5 15 4 0 2 7 -5 15 -7 8 -10 22 -6 30 3 9 -1 32 -9
52 -8 20 -17 47 -20 61 -6 35 -47 92 -66 92 -9 0 -34 7 -55 16 -24 10 -51 14
-73 10 -38 -7 -75 -12 -103 -14 -24 -3 -26 -28 -6 -106 9 -38 14 -74 11 -79
-3 -6 -1 -7 5 -3 7 4 15 -9 22 -36 18 -69 33 -108 43 -108 4 0 6 -4 2 -9 -3
-6 3 -24 14 -41 10 -17 16 -40 14 -51 -3 -11 1 -21 11 -25 10 -4 14 -15 12
-35 -2 -16 1 -29 6 -29 6 0 8 -9 5 -20 -3 -11 -1 -20 5 -20 6 0 8 -6 5 -14 -3
-8 -1 -16 4 -18 5 -2 11 -17 12 -33 1 -17 5 -32 9 -35 3 -3 16 -29 27 -58 15
-37 17 -52 8 -52 -6 0 -3 -7 8 -16 11 -8 20 -23 21 -32 2 -29 26 -96 41 -113
7 -9 11 -23 8 -32 -4 -8 -2 -18 4 -22 6 -3 11 -15 11 -26 0 -11 4 -17 10 -14
6 4 7 -1 3 -10 -8 -24 36 -151 64 -181 13 -14 23 -29 23 -33 0 -4 11 -18 24
-30 46 -44 116 -9 116 57 0 10 5 23 11 29 7 7 13 22 14 35 1 13 3 28 4 35 0 7
12 23 26 37 14 14 25 31 25 38 0 7 12 39 27 70 21 42 33 56 48 55 22 -1 47
-21 39 -30 -3 -3 2 -17 11 -31 10 -14 15 -26 11 -26 -3 0 3 -15 14 -32 29 -47
50 -95 50 -113 0 -8 5 -15 10 -15 6 0 10 -7 10 -15 0 -8 15 -22 33 -31 17 -9
40 -25 50 -35 26 -28 62 -24 85 9 10 15 17 32 15 39 -2 6 1 14 6 18 6 3 11 19
11 34 0 16 7 34 15 41 9 7 13 21 10 31 -4 11 -2 19 4 19 6 0 11 13 11 29 0 16
7 34 15 41 8 7 15 23 15 36 0 23 19 74 31 84 11 9 31 109 24 120 -3 5 1 13 10
16 9 4 14 13 11 20 -3 8 -1 14 4 14 6 0 10 9 10 20 0 11 5 20 11 20 6 0 9 7 5
15 -3 8 0 28 6 43 6 15 10 34 9 44 -1 9 3 19 8 23 6 3 8 19 4 35 -3 17 -1 30
4 30 14 0 40 75 47 135 8 70 14 97 26 109 5 5 10 22 10 36 0 14 4 30 9 36 14
15 23 82 11 89 -5 3 -10 15 -10 26 0 10 -7 19 -15 19 -12 0 -13 4 -6 19 8 13
7 22 -2 29 -19 15 -63 20 -79 8z"/>
<path d="M3245 4410 c3 -5 8 -10 11 -10 2 0 4 5 4 10 0 6 -5 10 -11 10 -5 0
-7 -4 -4 -10z"/>
<path d="M1918 1033 c7 -3 16 -2 19 1 4 3 -2 6 -13 5 -11 0 -14 -3 -6 -6z"/>
<path d="M2008 963 c7 -3 16 -2 19 1 4 3 -2 6 -13 5 -11 0 -14 -3 -6 -6z"/>
<path d="M2096 901 c26 -25 98 -70 102 -66 6 6 -28 40 -43 43 -5 1 -18 9 -28
17 -18 16 -48 22 -31 6z"/>
<path d="M2280 780 c0 -5 4 -10 9 -10 6 0 13 5 16 10 3 6 -1 10 -9 10 -9 0
-16 -4 -16 -10z"/>
<path d="M2374 715 c21 -16 32 -13 21 4 -3 6 -14 11 -23 11 -15 -1 -15 -2 2
-15z"/>
<path d="M2410 694 c0 -3 208 -124 214 -124 2 0 -1 11 -7 24 -7 14 -17 21 -28
19 -9 -3 -19 3 -22 11 -4 9 -17 16 -29 16 -30 0 -52 15 -44 29 4 7 0 11 -12
11 -10 0 -22 3 -26 7 -6 6 -46 13 -46 7z"/>
<path d="M2678 540 c73 -45 171 -89 166 -76 -3 8 -13 17 -22 21 -15 6 -15 8 2
21 23 16 14 19 -15 4 -15 -9 -21 -7 -25 5 -4 8 -11 15 -18 14 -37 -4 -66 2
-66 16 0 10 -10 15 -27 15 l-28 0 33 -20z"/>
<path d="M8050 520 c0 -5 4 -10 9 -10 6 0 13 5 16 10 3 6 -1 10 -9 10 -9 0
-16 -4 -16 -10z"/>
<path d="M2873 439 c9 -5 21 -8 25 -5 5 3 16 -4 25 -15 20 -23 34 -25 34 -4 0
8 -9 15 -19 15 -11 0 -16 5 -13 10 4 6 -9 10 -32 10 -31 -1 -35 -3 -20 -11z"/>
<path d="M7840 418 c0 -4 -11 -10 -25 -14 -14 -3 -25 -10 -25 -15 0 -4 21 1
48 13 59 26 62 29 29 26 -15 -1 -27 -6 -27 -10z"/>
<path d="M2994 385 c10 -8 24 -11 29 -8 6 4 2 10 -9 14 -31 12 -40 9 -20 -6z"/>
<path d="M3112 380 c0 -14 2 -19 5 -12 2 6 2 18 0 25 -3 6 -5 1 -5 -13z"/>
<path d="M7735 369 c-11 -17 -2 -18 25 -4 24 14 24 14 3 15 -12 0 -25 -5 -28
-11z"/>
<path d="M3080 359 c0 -5 5 -7 10 -4 6 3 10 8 10 11 0 2 -4 4 -10 4 -5 0 -10
-5 -10 -11z"/>
<path d="M7700 349 c0 -5 5 -7 10 -4 6 3 10 8 10 11 0 2 -4 4 -10 4 -5 0 -10
-5 -10 -11z"/>
<path d="M3112 341 c-10 -6 7 -16 53 -35 37 -15 70 -25 72 -22 3 3 -6 8 -20
11 -13 4 -29 17 -36 31 -11 25 -43 32 -69 15z"/>
<path d="M7640 323 c-13 -15 -12 -16 4 -10 10 4 20 7 22 7 2 0 4 5 4 10 0 15
-13 12 -30 -7z"/>
<path d="M7430 270 c0 -5 7 -7 15 -4 8 4 15 8 15 10 0 2 -7 4 -15 4 -8 0 -15
-4 -15 -10z"/>
<path d="M3270 266 c0 -2 7 -6 15 -10 8 -3 15 -1 15 4 0 6 -7 10 -15 10 -8 0
-15 -2 -15 -4z"/>
<path d="M3328 243 c6 -2 18 -2 25 0 6 3 1 5 -13 5 -14 0 -19 -2 -12 -5z"/>
<path d="M3400 222 c0 -12 60 -35 69 -27 8 8 -21 25 -31 18 -5 -2 -15 1 -23 7
-9 8 -15 8 -15 2z"/>
<path d="M3503 213 c-23 -9 -14 -25 9 -17 20 6 21 5 10 -9 -12 -14 4 -21 135
-62 193 -60 183 -58 183 -46 0 5 3 16 6 25 5 14 2 14 -26 4 -27 -9 -34 -8 -41
5 -7 11 -20 15 -50 12 -29 -3 -41 0 -45 10 -4 9 -19 15 -35 15 -16 0 -29 5
-29 10 0 6 -9 10 -20 10 -11 0 -20 5 -20 10 0 6 -6 10 -14 10 -7 0 -19 7 -26
15 -13 16 -17 17 -37 8z"/>
<path d="M7250 180 c-8 -5 -29 -10 -47 -10 -24 0 -31 -4 -27 -14 5 -12 12 -12
52 1 26 9 51 20 57 24 13 12 -16 11 -35 -1z"/>
<path d="M7118 138 c-2 -6 -19 -11 -37 -10 -18 0 -31 -4 -29 -9 5 -14 10 -13
63 2 46 14 60 29 26 29 -11 0 -21 -5 -23 -12z"/>
<path d="M6990 120 c0 -5 7 -10 15 -10 8 0 15 5 15 10 0 6 -7 10 -15 10 -8 0
-15 -4 -15 -10z"/>
<path d="M6952 108 c5 -15 28 -23 28 -10 0 5 -7 13 -16 16 -10 4 -14 1 -12 -6z"/>
<path d="M3868 89 c-24 -13 -23 -29 2 -29 13 0 20 7 20 20 0 23 1 23 -22 9z"/>
<path d="M6920 75 c0 -8 2 -15 4 -15 2 0 6 7 10 15 3 8 1 15 -4 15 -6 0 -10
-7 -10 -15z"/>
<path d="M3915 60 c-11 -5 -17 -9 -13 -9 4 -1 53 -13 109 -27 55 -14 103 -23
106 -20 3 2 0 17 -5 33 -6 15 -11 21 -11 12 -1 -24 -48 -31 -54 -9 -5 18 -57
34 -57 18 0 -5 -9 -4 -19 2 -23 12 -29 12 -56 0z"/>
<path d="M6643 23 c-23 -8 -14 -19 19 -21 18 -2 30 -1 27 1 -2 1 -11 8 -19 13
-8 6 -21 9 -27 7z"/>
<path d="M6720 20 c0 -5 5 -10 11 -10 5 0 7 5 4 10 -3 6 -8 10 -11 10 -2 0 -4
-4 -4 -10z"/>
</g>
</svg>
